<?xml version="1.0" encoding="iso-8859-1"?>
<!-- Generator: Adobe Illustrator 19.0.0, SVG Export Plug-In . SVG Version: 6.00 Build 0)  -->
<svg version="1.1" id="Layer_1" xmlns="http://www.w3.org/2000/svg" xmlns:xlink="http://www.w3.org/1999/xlink" x="0px" y="0px"
	 viewBox="0 0 480 480" style="enable-background:new 0 0 480 480;" xml:space="preserve">
<path style="fill:#E65039;" d="M256.928,439.885h-33.856c-8.464,0-15.464-6.592-15.968-15.048L185.208,58.949
	c-0.736-12.32,5.68-23.968,16.488-29.928l18.936-14.4c11.448-8.704,27.296-8.704,38.744,0l18.936,14.4
	c10.808,5.96,17.224,17.608,16.488,29.928l-21.896,365.888C272.392,433.293,265.392,439.885,256.928,439.885z"/>
<path style="fill:#EB7361;" d="M201.688,52.821l18.936-14.4c11.448-8.704,27.296-8.704,38.744,0l18.936,14.4
	c7.984,4.408,13.544,11.92,15.624,20.512l0.864-14.384c0.736-12.32-5.68-23.968-16.488-29.928l-18.936-14.4
	c-11.448-8.704-27.296-8.704-38.744,0l-18.936,14.4c-10.808,5.96-17.224,17.608-16.488,29.928l0.864,14.384
	C188.144,64.741,193.704,57.221,201.688,52.821z"/>
<path style="fill:#AD3C2B;" d="M216,439.885l8.104,21.616c2.344,6.248,8.312,10.384,14.984,10.384h1.824
	c6.672,0,12.64-4.136,14.984-10.384L264,439.885H216z"/>
<g>
	<polygon style="fill:#FCB641;" points="200,383.885 88,423.885 88,439.885 208,431.885 	"/>
	<polygon style="fill:#FCB641;" points="184,127.885 8,189.485 8,215.885 192,215.885 	"/>
</g>
<polygon style="fill:#FDC567;" points="189.816,215.885 192,215.885 184,127.885 8,189.485 8,213.485 184,151.885 "/>
<path style="fill:#AD3C2B;" d="M126.112,247.885H89.888c-6.064,0-11.6-3.424-14.312-8.848L64,215.885h88l-11.576,23.152
	C137.712,244.461,132.168,247.885,126.112,247.885z"/>
<g>
	<polygon style="fill:#FCB641;" points="280,383.885 392,423.885 392,439.885 272,431.885 	"/>
	<polygon style="fill:#FCB641;" points="296,127.885 472,189.485 472,215.885 288,215.885 	"/>
</g>
<polygon style="fill:#FDC567;" points="296,127.885 288,215.885 290.184,215.885 296,151.885 472,213.485 472,189.485 "/>
<path style="fill:#AD3C2B;" d="M353.888,247.885h36.224c6.064,0,11.6-3.424,14.312-8.848L416,215.885h-88l11.576,23.152
	C342.288,244.461,347.832,247.885,353.888,247.885z"/>
<g>
	<path style="fill:#132C47;" d="M368,191.885h-32c-4.424,0-8-3.576-8-8s3.576-8,8-8h32c4.424,0,8,3.576,8,8
		S372.424,191.885,368,191.885z"/>
	<path style="fill:#132C47;" d="M144,175.885h-32c-4.424,0-8,3.576-8,8s3.576,8,8,8h32c4.424,0,8-3.576,8-8
		S148.424,175.885,144,175.885z"/>
	<path style="fill:#132C47;" d="M472,159.885c-4.424,0-8,3.576-8,8v10.32l-164.872-57.704l3.656-61.08
		c0.896-15.104-6.96-29.6-20.064-37.112L264.224,8.245c-14.264-10.84-34.168-10.84-48.44,0L197.28,22.317
		c-13.104,7.504-20.96,22.008-20.064,37.112l3.656,61.08L16,178.205v-10.32c0-4.424-3.576-8-8-8s-8,3.576-8,8v21.6v2.4v24
		c0,4.424,3.576,8,8,8h51.056l9.368,18.736c4.088,8.176,12.32,13.264,21.464,13.264h36.216c9.152,0,17.376-5.088,21.472-13.264
		l9.368-18.736h30.12l9.152,152.864L96,412.533v-12.648c0-4.424-3.576-8-8-8s-8,3.576-8,8v24v16c0,2.208,0.912,4.328,2.528,5.84
		c1.496,1.392,3.448,2.16,5.472,2.16c0.176,0,0.352-0.008,0.528-0.016l116.96-7.8c0.944,1.024,1.976,1.96,3.08,2.808l8.04,21.432
		c3.496,9.32,12.528,15.576,22.48,15.576h1.832c9.952,0,18.984-6.256,22.472-15.568l8.04-21.44c1.112-0.848,2.136-1.776,3.08-2.808
		l116.96,7.8c0.176,0.008,0.352,0.016,0.528,0.016c2.024,0,3.976-0.768,5.472-2.16c1.616-1.512,2.528-3.632,2.528-5.84v-16v-24
		c0-4.424-3.576-8-8-8s-8,3.576-8,8v12.648l-100.208-35.792l9.144-152.856h30.12l9.368,18.736
		c4.088,8.176,12.32,13.264,21.464,13.264h36.216c9.152,0,17.376-5.088,21.472-13.264l9.368-18.736H472c4.424,0,8-3.576,8-8v-24
		v-2.4v-21.6C480,163.461,476.424,159.885,472,159.885z M133.264,235.461c-1.36,2.728-4.096,4.424-7.152,4.424H89.896
		c-3.056,0-5.8-1.696-7.16-4.424l-5.792-11.576h62.112L133.264,235.461z M152,207.885H64H16v-12.72l160.96-56.344l6.28,69.064H152z
		 M205.552,36.021c0.344-0.184,0.664-0.4,0.976-0.632l18.936-14.4c4.28-3.248,9.408-4.88,14.528-4.88s10.256,1.632,14.528,4.88
		l18.936,14.4c0.312,0.232,0.632,0.448,0.976,0.632c8.064,4.456,12.912,13.264,12.368,22.456l-21.896,365.896
		c-0.24,4.208-3.744,7.512-7.976,7.512h-33.856c-4.224,0-7.736-3.304-7.984-7.52L193.184,58.469
		C192.64,49.285,197.496,40.469,205.552,36.021z M96,431.333v-1.808l97.68-34.888l4.976,29.848L96,431.333z M248.4,458.701
		c-1.168,3.096-4.176,5.184-7.488,5.184h-1.832c-3.312,0-6.32-2.088-7.488-5.192l-4.048-10.808h24.904L248.4,458.701z M384,429.525
		v1.808l-102.656-6.84l4.976-29.848L384,429.525z M397.264,235.461c-1.36,2.728-4.096,4.424-7.152,4.424h-36.216
		c-3.056,0-5.8-1.696-7.16-4.424l-5.792-11.576h62.112L397.264,235.461z M464,207.885h-48h-88h-31.24l6.28-69.064L464,195.165
		V207.885z"/>
	<path style="fill:#132C47;" d="M220.44,70.541L240,57.501l19.56,13.04c1.368,0.904,2.912,1.344,4.432,1.344
		c2.584,0,5.128-1.248,6.664-3.56c2.456-3.68,1.464-8.64-2.216-11.096l-24-16c-2.688-1.8-6.184-1.8-8.872,0l-24,16
		c-3.68,2.456-4.672,7.416-2.216,11.096C211.792,71.989,216.744,72.981,220.44,70.541z"/>
	<path style="fill:#132C47;" d="M240,111.885c-4.424,0-8,3.576-8,8v104c0,4.424,3.576,8,8,8c4.424,0,8-3.576,8-8v-104
		C248,115.461,244.424,111.885,240,111.885z"/>
	<path style="fill:#132C47;" d="M240,263.885c-4.424,0-8,3.576-8,8v16c0,4.424,3.576,8,8,8c4.424,0,8-3.576,8-8v-16
		C248,267.461,244.424,263.885,240,263.885z"/>
	<path style="fill:#132C47;" d="M376,279.885c0-4.424-3.576-8-8-8s-8,3.576-8,8v32c0,4.424,3.576,8,8,8s8-3.576,8-8V279.885z"/>
	<path style="fill:#132C47;" d="M368,335.885c-4.424,0-8,3.576-8,8v8c0,4.424,3.576,8,8,8s8-3.576,8-8v-8
		C376,339.461,372.424,335.885,368,335.885z"/>
	<path style="fill:#132C47;" d="M456,335.885c-4.424,0-8,3.576-8,8v32c0,4.424,3.576,8,8,8s8-3.576,8-8v-32
		C464,339.461,460.424,335.885,456,335.885z"/>
	<path style="fill:#132C47;" d="M456,399.885c-4.424,0-8,3.576-8,8v8c0,4.424,3.576,8,8,8s8-3.576,8-8v-8
		C464,403.461,460.424,399.885,456,399.885z"/>
	<path style="fill:#132C47;" d="M424,95.885c4.424,0,8-3.576,8-8v-32c0-4.424-3.576-8-8-8s-8,3.576-8,8v32
		C416,92.309,419.576,95.885,424,95.885z"/>
	<path style="fill:#132C47;" d="M424,135.885c4.424,0,8-3.576,8-8v-8c0-4.424-3.576-8-8-8s-8,3.576-8,8v8
		C416,132.309,419.576,135.885,424,135.885z"/>
	<path style="fill:#132C47;" d="M56,95.885c4.424,0,8-3.576,8-8v-32c0-4.424-3.576-8-8-8s-8,3.576-8,8v32
		C48,92.309,51.576,95.885,56,95.885z"/>
	<path style="fill:#132C47;" d="M56,135.885c4.424,0,8-3.576,8-8v-8c0-4.424-3.576-8-8-8s-8,3.576-8,8v8
		C48,132.309,51.576,135.885,56,135.885z"/>
	<path style="fill:#132C47;" d="M112,319.885c4.424,0,8-3.576,8-8v-32c0-4.424-3.576-8-8-8s-8,3.576-8,8v32
		C104,316.309,107.576,319.885,112,319.885z"/>
	<path style="fill:#132C47;" d="M104,351.885c0,4.424,3.576,8,8,8c4.424,0,8-3.576,8-8v-8c0-4.424-3.576-8-8-8s-8,3.576-8,8V351.885
		z"/>
	<path style="fill:#132C47;" d="M24,335.885c-4.424,0-8,3.576-8,8v32c0,4.424,3.576,8,8,8s8-3.576,8-8v-32
		C32,339.461,28.424,335.885,24,335.885z"/>
	<path style="fill:#132C47;" d="M24,399.885c-4.424,0-8,3.576-8,8v8c0,4.424,3.576,8,8,8s8-3.576,8-8v-8
		C32,403.461,28.424,399.885,24,399.885z"/>
</g>
<g>
</g>
<g>
</g>
<g>
</g>
<g>
</g>
<g>
</g>
<g>
</g>
<g>
</g>
<g>
</g>
<g>
</g>
<g>
</g>
<g>
</g>
<g>
</g>
<g>
</g>
<g>
</g>
<g>
</g>
</svg>
